<svg xmlns="http://www.w3.org/2000/svg" width="22.758" height="22.711" viewBox="0 0 22.758 22.711">
  <g id="Group_5" data-name="Group 5" transform="translate(813.04 -78.75)">
    <path id="Path_27" data-name="Path 27" d="M165.644,56a5.389,5.389,0,0,0-.136,10.776.917.917,0,0,1,.25,0h.079A5.39,5.39,0,0,0,165.644,56Z" transform="translate(-970.69 22.75)" fill="#c4c4c4"/>
    <path id="Path_28" data-name="Path 28" d="M171.723,68.339a11.275,11.275,0,0,0-11.526,0,4.112,4.112,0,0,0-.011,7.313,11.192,11.192,0,0,0,11.537,0,4.116,4.116,0,0,0,0-7.313Z" transform="translate(-971 24.208)" fill="#c4c4c4"/>
    <path id="Path_29" data-name="Path 29" d="M176.787,61.785a4.064,4.064,0,0,1-3.554,4.395h-.057a.531.531,0,0,0-.193.023,4.074,4.074,0,0,1-2.873-.943,5.2,5.2,0,0,0,1.7-4.315,5.27,5.27,0,0,0-.874-2.476,4.077,4.077,0,0,1,5.848,3.316Z" transform="translate(-969.353 23.029)" fill="#c4c4c4"/>
    <path id="Path_30" data-name="Path 30" d="M179.074,71.144a3.459,3.459,0,0,1-1.976,2.7,8.015,8.015,0,0,1-3.986.886A4.053,4.053,0,0,0,174.5,72.1a4.474,4.474,0,0,0-1.9-3.838,9.374,9.374,0,0,0-2.612-1.431,8.875,8.875,0,0,1,7.608,1.329A3.45,3.45,0,0,1,179.074,71.144Z" transform="translate(-969.369 24.173)" fill="#c4c4c4"/>
  </g>
</svg>
