<svg xmlns="http://www.w3.org/2000/svg" width="22" height="22" viewBox="0 0 22 22">
  <g id="Group_3" data-name="Group 3" transform="translate(-42 -219.25)">
    <path id="Path_23" data-name="Path 23" d="M342.783,63.12V58.162c0-1.54-.7-2.162-2.435-2.162h-4.412c-1.736,0-2.435.622-2.435,2.162v4.947c0,1.551.7,2.162,2.435,2.162h4.412C342.084,65.283,342.783,64.66,342.783,63.12Z" transform="translate(-278.783 163.25)" fill="#c4c4c4"/>
    <path id="Path_24" data-name="Path 24" d="M342.783,74.347V69.935c0-1.736-.7-2.435-2.435-2.435h-4.412c-1.736,0-2.435.7-2.435,2.435v4.412c0,1.736.7,2.435,2.435,2.435h4.412C342.084,76.783,342.783,76.084,342.783,74.347Z" transform="translate(-278.783 164.467)" fill="#c4c4c4"/>
    <path id="Path_25" data-name="Path 25" d="M331.283,63.12V58.162c0-1.54-.7-2.162-2.435-2.162h-4.412C322.7,56,322,56.622,322,58.162v4.947c0,1.551.7,2.162,2.435,2.162h4.412C330.584,65.283,331.283,64.66,331.283,63.12Z" transform="translate(-280 163.25)" fill="#c4c4c4"/>
    <path id="Path_26" data-name="Path 26" d="M331.283,74.347V69.935c0-1.736-.7-2.435-2.435-2.435h-4.412c-1.736,0-2.435.7-2.435,2.435v4.412c0,1.736.7,2.435,2.435,2.435h4.412C330.584,76.783,331.283,76.084,331.283,74.347Z" transform="translate(-280 164.467)" fill="#c4c4c4"/>
  </g>
</svg>
