<svg xmlns="http://www.w3.org/2000/svg" width="16" height="20" viewBox="0 0 16 20">
  <g id="Group_6" data-name="Group 6" transform="translate(38 -379.254)">
    <path id="Path_64" data-name="Path 64" d="M828,135.25a2.253,2.253,0,0,1-2.25,2.25h-3.5a2.25,2.25,0,0,1,0-4.5h3.5a2.253,2.253,0,0,1,2.25,2.25Z" transform="translate(-854 246.254)" fill="#fff"/>
    <path id="Path_65" data-name="Path 65" d="M830.83,136.03a2.83,2.83,0,0,0-.77-.45.5.5,0,0,0-.64.42,3.737,3.737,0,0,1-3.67,3h-3.5a3.753,3.753,0,0,1-3.67-2.99.507.507,0,0,0-.65-.42c-1.16.47-1.93,1.53-1.93,3.66V149c0,3,1.79,4,4,4h8c2.21,0,4-1,4-4v-9.75A3.9,3.9,0,0,0,830.83,136.03ZM820,143.25h4a.75.75,0,0,1,0,1.5h-4a.75.75,0,0,1,0-1.5Zm8,5.5h-8a.75.75,0,0,1,0-1.5h8a.75.75,0,0,1,0,1.5Z" transform="translate(-854 246.254)" fill="#fff"/>
  </g>
</svg>
