<svg xmlns="http://www.w3.org/2000/svg" width="23.625" height="23.631" viewBox="0 0 23.625 23.631">
  <path id="Icon_ionic-ios-settings" data-name="Icon ionic-ios-settings" d="M26.175,16.313a3.04,3.04,0,0,1,1.95-2.836,12.05,12.05,0,0,0-1.458-3.513,3.081,3.081,0,0,1-1.237.265,3.033,3.033,0,0,1-2.775-4.27A12.014,12.014,0,0,0,19.149,4.5a3.037,3.037,0,0,1-5.672,0A12.05,12.05,0,0,0,9.963,5.958a3.033,3.033,0,0,1-2.775,4.27,2.981,2.981,0,0,1-1.237-.265A12.317,12.317,0,0,0,4.5,13.482a3.039,3.039,0,0,1,.006,5.672,12.05,12.05,0,0,0,1.458,3.513,3.035,3.035,0,0,1,4.005,4.005,12.121,12.121,0,0,0,3.513,1.458,3.032,3.032,0,0,1,5.66,0,12.05,12.05,0,0,0,3.513-1.458,3.038,3.038,0,0,1,4.005-4.005,12.121,12.121,0,0,0,1.458-3.513A3.055,3.055,0,0,1,26.175,16.313Zm-9.807,4.916a4.922,4.922,0,1,1,4.922-4.922A4.921,4.921,0,0,1,16.368,21.228Z" transform="translate(-4.5 -4.5)" fill="#fff"/>
</svg>
