<svg xmlns="http://www.w3.org/2000/svg" width="19.99" height="20" viewBox="0 0 19.99 20">
  <g id="Group_1265" data-name="Group 1265" transform="translate(484.99 -155.75)">
    <path id="Path_44" data-name="Path 44" d="M504.99,140.71a3.605,3.605,0,0,0-1.35-.21h-5.28c-1.74,0-2.36.62-2.36,2.38v7.74a3.525,3.525,0,0,0,.22,1.38c.31.72.97,1,2.14,1h5.28c1.74,0,2.36-.63,2.36-2.38v-7.74C506,141.69,505.72,141.02,504.99,140.71ZM502,150.75h-2a.17.17,0,0,1-.07-.01.62.62,0,0,1-.39-.16.706.706,0,0,1-.29-.58.755.755,0,0,1,.75-.75h2a.75.75,0,0,1,0,1.5Z" transform="translate(-971 22.75)" fill="#c4c4c4"/>
    <path id="Path_45" data-name="Path 45" d="M504.99,137.19V138a1,1,0,0,1-1,1h-5.63c-2.56,0-3.86,1.31-3.86,3.88V152a1,1,0,0,1-1,1h-1.95a.71.71,0,1,1,0-1.42h1.95v-3.83H490a4.2,4.2,0,0,1-3.99-4.19v-6.37a4.2,4.2,0,0,1,4.2-4.19H500.8A4.2,4.2,0,0,1,504.99,137.19Z" transform="translate(-971 22.75)" fill="#c4c4c4"/>
  </g>
</svg>
