<svg xmlns="http://www.w3.org/2000/svg" width="19.389" height="19.19" viewBox="0 0 19.389 19.19">
  <path id="Path_16" data-name="Path 16" d="M96.4,146.647l-1.279-2.129a4.479,4.479,0,0,1-.532-1.9V140.5a7.444,7.444,0,1,0-14.888,0v2.106a4.634,4.634,0,0,1-.521,1.9L77.9,146.636A2.892,2.892,0,0,0,79.512,151a25.047,25.047,0,0,0,3.714.917c.125.023.249.034.374.057.159.023.328.045.5.068.294.045.589.079.894.1.713.068,1.438.1,2.162.1s1.427-.034,2.129-.1c.26-.023.521-.045.77-.079.2-.023.408-.045.611-.079.125-.011.249-.034.374-.057A23.849,23.849,0,0,0,94.785,151a3,3,0,0,0,1.857-1.789A2.954,2.954,0,0,0,96.4,146.647Zm-8.423-4.6a.86.86,0,0,1-1.721,0v-3.51a.86.86,0,0,1,1.721,0Z" transform="translate(-77.44 -133.05)" fill="#c4c4c4"/>
</svg>
