<svg xmlns="http://www.w3.org/2000/svg" width="19.99" height="20" viewBox="0 0 19.99 20">
  <path id="Path_258" data-name="Path 258" d="M828.19,56h-8.38c-3.64,0-5.81,2.17-5.81,5.81v8.37c0,3.65,2.17,5.82,5.81,5.82h8.37c3.64,0,5.81-2.17,5.81-5.81V61.81C834,58.17,831.83,56,828.19,56Zm-8.52,3.5a.75.75,0,0,1,1.5,0v3.9a.75.75,0,0,1-1.5,0Zm1.853,10.931a.566.566,0,0,0-.353.5V72.5a.75.75,0,0,1-1.5,0V70.936a.566.566,0,0,0-.353-.5,2.73,2.73,0,1,1,2.206,0ZM828.33,72.5a.75.75,0,0,1-1.5,0V68.6a.75.75,0,0,1,1.5,0Zm-.75-5.73a2.72,2.72,0,0,1-1.1-5.211.566.566,0,0,0,.353-.5V59.5a.75.75,0,0,1,1.5,0v1.564a.566.566,0,0,0,.353.5,2.717,2.717,0,0,1-1.1,5.2Z" transform="translate(-814 -56)" fill="#c4c4c4"/>
</svg>
